<?xml version="1.0" encoding="iso-8859-1"?>
<!-- Generator: Adobe Illustrator 21.0.2, SVG Export Plug-In . SVG Version: 6.00 Build 0)  -->
<svg xmlns="http://www.w3.org/2000/svg" xmlns:xlink="http://www.w3.org/1999/xlink" version="1.1" id="Layer_1" x="0px" y="0px" viewBox="0 0 40 40" style="enable-background:new 0 0 40 40;" xml:space="preserve">
<g>
	<path style="fill:#98CCFD;" d="M28.607,35.5c-0.247,0-0.498-0.031-0.746-0.093c-0.95-0.234-1.744-1-2.022-1.951   c-0.161-0.551-0.167-1.094-0.018-1.614c0.323-1.132,0.193-2.447-0.365-3.704l-2.18-4.904l1.564-0.695   c0.519,1.186,1.897,4.33,2.469,5.546c0.548,1.166,1.67,1.595,2.34,1.851c0.174,0.066,0.324,0.119,0.427,0.181   c0.878,0.519,1.424,1.474,1.424,2.492c0,0.772-0.301,1.499-0.848,2.045C30.106,35.199,29.38,35.5,28.607,35.5L28.607,35.5z"/>
	<path style="fill:#4788C7;" d="M24.584,23.2c0.612,1.398,1.755,3.995,2.272,5.097c0.634,1.35,1.874,1.823,2.615,2.105   c0.126,0.048,0.299,0.114,0.351,0.144C30.549,30.975,31,31.765,31,32.607C31,33.927,29.927,35,28.607,35   c-0.206,0-0.417-0.026-0.626-0.078c-0.78-0.193-1.433-0.824-1.662-1.606c-0.134-0.458-0.14-0.907-0.017-1.336   c0.355-1.244,0.217-2.681-0.389-4.045l-1.976-4.447L24.584,23.2 M25.098,21.877l-2.481,1.103l2.383,5.361   c0.469,1.056,0.659,2.252,0.341,3.364c-0.165,0.578-0.178,1.221,0.019,1.892c0.326,1.114,1.254,2.017,2.381,2.296   C28.035,35.966,28.325,36,28.607,36C30.481,36,32,34.481,32,32.607c0-1.244-0.67-2.332-1.669-2.923   c-0.505-0.299-1.961-0.518-2.57-1.813C27.05,26.356,25.098,21.877,25.098,21.877L25.098,21.877z"/>
</g>
<g>
	<path style="fill:#98CCFD;" d="M23.5,14.573l1.171-1.464c0.832-1.038,1.211-2.236,1.065-3.374   c-0.055-0.427-0.006-0.864,0.146-1.301c0.318-0.914,1.079-1.621,1.985-1.844C28.113,6.53,28.362,6.5,28.607,6.5   c1.557,0,2.854,1.265,2.892,2.82c0.02,0.802-0.426,1.652-1.191,2.275c-0.421,0.342-0.823,0.551-1.232,0.641   c-1.194,0.259-2.173,0.831-2.831,1.652l-1.404,1.757L23.5,14.573z"/>
	<path style="fill:#4788C7;" d="M28.607,7C29.895,7,30.968,8.046,31,9.333c0.016,0.648-0.361,1.349-1.007,1.875   c-0.359,0.292-0.693,0.468-1.023,0.54c-1.308,0.285-2.385,0.918-3.115,1.829l-1.093,1.366l-0.559-0.447l0.859-1.074   c0.918-1.147,1.333-2.479,1.171-3.75c-0.045-0.351-0.004-0.712,0.122-1.073c0.259-0.745,0.9-1.343,1.632-1.522   C28.193,7.026,28.402,7,28.607,7 M28.607,6c-0.28,0-0.568,0.034-0.86,0.106c-1.082,0.266-1.972,1.113-2.338,2.165   c-0.186,0.535-0.231,1.049-0.169,1.529c0.138,1.076-0.282,2.151-0.96,2.998l-1.484,1.854l2.121,1.696l1.717-2.147   c0.635-0.793,1.554-1.261,2.547-1.477c0.447-0.097,0.925-0.321,1.441-0.741c0.812-0.66,1.402-1.629,1.376-2.675   C31.954,7.473,30.453,6,28.607,6L28.607,6z"/>
</g>
<g>
	<path style="fill:#98CCFD;" d="M7.809,19.051c-0.244-0.055-0.491-0.083-0.734-0.083c-0.493,0-0.964,0.118-1.36,0.342   c-0.221,0.124-0.462,0.188-0.716,0.188c-0.826,0-1.498-0.673-1.498-1.499S4.172,16.5,4.998,16.5c0.44,0,0.856,0.194,1.14,0.533   c0.419,0.499,1.054,0.855,1.839,1.031l5.427,1.211l-0.217,0.976L7.809,19.051z"/>
	<path style="fill:#4788C7;" d="M4.998,17c0.292,0,0.568,0.129,0.757,0.355c0.485,0.579,1.209,0.991,2.093,1.192   c-0.257-0.053-0.517-0.079-0.772-0.079c-0.579,0-1.135,0.14-1.607,0.405c-0.146,0.082-0.304,0.123-0.471,0.123   C4.448,18.997,4,18.549,4,17.998S4.448,17,4.998,17 M4.998,16C3.895,16,3,16.895,3,17.998s0.895,1.998,1.998,1.998   c0.35,0,0.676-0.092,0.96-0.251c0.342-0.192,0.727-0.277,1.117-0.277c0.209,0,0.419,0.025,0.625,0.07l5.865,1.309L14,18.896   l-5.914-1.32c-0.593-0.132-1.174-0.397-1.564-0.863C6.157,16.278,5.611,16,4.998,16L4.998,16z"/>
</g>
<g>
	<path style="fill:#98CCFD;" d="M12.036,34.5c-0.847,0-1.536-0.689-1.536-1.536c0-0.679,0.455-1.285,1.106-1.475   c0.653-0.19,1.147-0.64,1.393-0.996c0.653-0.953,2.284-3.265,2.947-4.204l0.847,0.594c-0.624,0.879-2.092,2.952-2.856,4.076   c-0.322,0.476-0.365,1.267-0.365,1.979C13.571,33.811,12.883,34.5,12.036,34.5z"/>
	<path style="fill:#4788C7;" d="M16.067,26.985l0.027,0.019c-0.714,1.008-1.91,2.701-2.571,3.674   c-0.399,0.588-0.453,1.472-0.452,2.286c0,0.571-0.465,1.036-1.036,1.036S11,33.535,11,32.964c0-0.458,0.306-0.867,0.745-0.995   c0.663-0.193,1.286-0.639,1.666-1.194C13.978,29.949,15.301,28.07,16.067,26.985 M15.825,25.594c0,0-2.408,3.405-3.238,4.616   c-0.211,0.309-0.623,0.655-1.12,0.799C10.619,31.255,10,32.038,10,32.964C10,34.089,10.911,35,12.036,35s2.036-0.911,2.036-2.036   c0-0.349-0.008-1.301,0.279-1.724c0.984-1.449,3.141-4.477,3.141-4.477L15.825,25.594L15.825,25.594z"/>
</g>
<g>
	<path style="fill:#B6DCFE;" d="M10.765,13.032c-0.761-0.978-1.754-1.61-2.797-1.781c-0.278-0.046-0.546-0.134-0.82-0.27   c-0.864-0.431-1.483-1.252-1.614-2.145C5.406,7.979,5.644,7.15,6.202,6.504C6.752,5.866,7.551,5.5,8.393,5.5   c0.229,0,0.461,0.026,0.691,0.079c0.944,0.217,1.751,0.967,2.056,1.91c0.139,0.432,0.179,0.864,0.119,1.285   c-0.161,1.146,0.206,2.364,1.034,3.431l5.291,6.802l-1.353,1.053L10.765,13.032z"/>
	<path style="fill:#4788C7;" d="M8.393,6c0.191,0,0.386,0.023,0.579,0.067c0.776,0.178,1.439,0.797,1.691,1.576   c0.115,0.358,0.149,0.715,0.1,1.062c-0.181,1.282,0.222,2.634,1.135,3.807l4.984,6.408l-0.564,0.439l-5.159-6.633   c-0.838-1.077-1.943-1.776-3.111-1.967c-0.228-0.037-0.45-0.111-0.678-0.224c-0.72-0.358-1.234-1.036-1.342-1.769   C5.922,8.052,6.119,7.366,6.58,6.831C7.036,6.303,7.696,6,8.393,6 M8.393,5C6.349,5,4.727,6.807,5.038,8.911   c0.16,1.084,0.905,2.03,1.886,2.518c0.33,0.164,0.651,0.265,0.962,0.316c0.999,0.164,1.862,0.795,2.483,1.595l5.774,7.423   l2.142-1.667l-5.597-7.197c-0.676-0.869-1.087-1.964-0.934-3.053c0.067-0.474,0.031-0.982-0.139-1.509   c-0.356-1.101-1.292-1.985-2.419-2.244C8.923,5.03,8.655,5,8.393,5L8.393,5z"/>
</g>
<g>
	<path style="fill:#B6DCFE;" d="M5.513,29.5c-0.61,0-1.182-0.272-1.566-0.749c-0.391-0.482-0.531-1.092-0.397-1.716   c0.152-0.71,0.721-1.309,1.415-1.489c0.184-0.047,0.368-0.071,0.549-0.071c0.378,0,0.745,0.105,1.063,0.305   c0.522,0.328,1.107,0.501,1.692,0.501c0.306,0,0.607-0.048,0.896-0.142l4.649-1.509l0.273,0.84L9.35,27.008   c-0.833,0.271-1.585,0.841-2.235,1.696C6.73,29.21,6.146,29.5,5.513,29.5z"/>
	<path style="fill:#4788C7;" d="M5.513,25.974c0.283,0,0.559,0.079,0.797,0.229c0.601,0.378,1.278,0.577,1.957,0.577   c0.122,0,0.243-0.006,0.363-0.019c-0.706,0.346-1.348,0.896-1.914,1.641C6.428,28.782,5.989,29,5.513,29   c-0.459,0-0.888-0.205-1.178-0.563c-0.293-0.363-0.399-0.824-0.298-1.297c0.114-0.529,0.537-0.976,1.053-1.11   C5.232,25.993,5.374,25.974,5.513,25.974 M14.135,24L9.01,25.663c-0.244,0.079-0.494,0.117-0.743,0.117   c-0.497,0-0.991-0.151-1.425-0.424c-0.385-0.242-0.841-0.382-1.329-0.382c-0.219,0-0.445,0.028-0.675,0.088   c-0.882,0.23-1.587,0.977-1.778,1.868C2.71,28.561,3.943,30,5.513,30c0.817,0,1.542-0.39,2-0.993   c0.52-0.685,1.173-1.258,1.991-1.524l5.212-1.692L14.135,24L14.135,24z"/>
</g>
<g>
	<path style="fill:#B6DCFE;" d="M25.412,18.38c0.366-0.094,0.918-0.234,1.545-0.395c1.396-0.355,3.154-0.803,4.064-1.048   c0.614-0.164,1.094-0.369,1.659-1.519c0.282-0.575,0.79-0.919,1.358-0.919c0.806,0,1.461,0.655,1.461,1.461   s-0.655,1.462-1.461,1.462c-0.1,0-0.199-0.01-0.295-0.029c-0.714-0.146-1.263-0.211-1.779-0.211c-0.442,0-0.847,0.049-1.235,0.148   l-5.239,1.352L25.412,18.38z"/>
	<path style="fill:#4788C7;" d="M34.039,15C34.569,15,35,15.431,35,15.961c0,0.53-0.431,0.961-0.961,0.961   c-0.066,0-0.131-0.007-0.194-0.019c-0.538-0.11-0.989-0.176-1.406-0.205c0.236-0.253,0.461-0.592,0.69-1.06   C33.203,15.489,33.486,15,34.039,15 M34.039,14c-0.812,0-1.47,0.512-1.807,1.198c-0.493,1.002-0.842,1.124-1.34,1.257   c-1.658,0.445-6.137,1.567-6.088,1.57l0.327,1.267l5.724-1.476c0.368-0.095,0.739-0.133,1.112-0.133c0.558,0,1.12,0.086,1.677,0.2   c0.128,0.026,0.259,0.04,0.395,0.04c1.083,0,1.961-0.878,1.961-1.961S35.122,14,34.039,14L34.039,14z"/>
</g>
<g>
	<path style="fill:#DFF0FE;" d="M19.5,38.5c-0.277,0-0.559-0.037-0.837-0.112c-0.978-0.262-1.781-1.061-2.047-2.035   c-0.364-1.34,0.144-2.667,1.294-3.382c1.106-0.687,1.74-1.745,1.74-2.904v-0.175c0-0.441-0.167-0.794-0.278-1.026   c-0.031-0.067-0.063-0.125-0.076-0.175C19.3,28.561,19.659,28.3,20.2,28.3s0.899,0.261,0.899,0.434   c-0.006,0.015-0.059,0.143-0.096,0.236c-0.113,0.277-0.254,0.623-0.254,0.979v0.694c0,1.085,0.379,2.139,1.065,2.966   c0.448,0.539,0.685,1.193,0.685,1.892c0,0.802-0.312,1.555-0.879,2.122C21.055,38.188,20.302,38.5,19.5,38.5   C19.5,38.5,19.5,38.5,19.5,38.5z"/>
	<path style="fill:#4788C7;" d="M20.2,28.8c0.128,0,0.235,0.022,0.313,0.048c-0.119,0.294-0.263,0.68-0.263,1.1v0.694   c0,1.201,0.419,2.368,1.181,3.285C21.803,34.376,22,34.92,22,35.5c0,1.378-1.121,2.5-2.5,2.5c-0.233,0-0.471-0.032-0.707-0.095   c-0.809-0.217-1.474-0.877-1.694-1.683c-0.305-1.121,0.117-2.23,1.075-2.826c1.218-0.756,1.953-1.975,1.975-3.269h0.001v-0.061   v-0.175c0-0.435-0.126-0.793-0.239-1.051C19.987,28.818,20.085,28.8,20.2,28.8 M20.2,27.8c-0.773,0-1.4,0.418-1.4,0.933   c0,0.232,0.35,0.615,0.35,1.158c0,0.083,0,0.139,0,0.175v0.061c0,0,0-0.015,0-0.061c0,1.042-0.618,1.93-1.503,2.48   c-1.241,0.77-1.961,2.29-1.513,3.938c0.312,1.147,1.252,2.079,2.4,2.386C18.862,38.959,19.186,39,19.5,39   c1.933,0,3.5-1.567,3.5-3.5c0-0.843-0.301-1.611-0.8-2.211c-0.617-0.743-0.95-1.68-0.95-2.646c0,0,0-0.171,0-0.694   c0-0.444,0.35-0.983,0.35-1.215C21.6,28.218,20.973,27.8,20.2,27.8L20.2,27.8z"/>
</g>
<g>
	<path style="fill:#DFF0FE;" d="M34.393,27.5c-0.881,0-1.657-0.595-1.889-1.446c-0.141-0.523-0.522-0.955-1.021-1.154   c-0.002-0.001-2.089-0.824-2.781-1.108c-0.255-0.104-0.532-0.118-0.745-0.118c0,0-0.303,0.004-0.312,0.004   c-0.03,0-0.057-0.001-0.079-0.005c-0.044-0.022-0.15-0.35,0.04-0.785c0.162-0.37,0.426-0.545,0.555-0.547   c0.004,0.008,0.019,0.028,0.035,0.05c0.12,0.159,0.321,0.425,0.688,0.563c0.711,0.267,2.821,1.124,2.821,1.124   c0.2,0.08,0.408,0.12,0.622,0.12c0.351,0,0.699-0.107,1.009-0.311c0.316-0.205,0.682-0.314,1.058-0.314   c0.149,0,0.303,0.018,0.454,0.052c0.722,0.162,1.326,0.782,1.47,1.507c0.119,0.603-0.025,1.188-0.405,1.651   C35.536,27.238,34.982,27.5,34.393,27.5z"/>
	<path style="fill:#4788C7;" d="M28.091,23.031c0.055,0.052,0.116,0.104,0.185,0.155c-0.086-0.008-0.168-0.011-0.244-0.012   c0.008-0.027,0.019-0.056,0.032-0.087C28.072,23.067,28.081,23.048,28.091,23.031 M34.393,24.071c0.113,0,0.229,0.013,0.345,0.039   c0.535,0.12,0.982,0.579,1.088,1.116c0.089,0.453-0.018,0.892-0.301,1.237C35.245,26.805,34.833,27,34.393,27   c-0.656,0-1.234-0.443-1.406-1.078c-0.136-0.502-0.444-0.939-0.859-1.235c0.066,0.006,0.133,0.009,0.2,0.009   c0.448,0,0.891-0.135,1.282-0.391C33.844,24.152,34.115,24.071,34.393,24.071 M28.163,21.839c-0.373,0-0.791,0.334-1.016,0.848   c-0.272,0.624-0.156,1.276,0.26,1.458c0.06,0.026,0.153,0.032,0.263,0.032c0.087,0,0.185-0.004,0.287-0.004   c0.187,0,0.387,0.012,0.554,0.081c0.694,0.284,2.785,1.11,2.785,1.11c0.359,0.143,0.624,0.448,0.725,0.821   C32.306,27.23,33.257,28,34.393,28c1.525,0,2.727-1.386,2.415-2.967c-0.182-0.923-0.932-1.692-1.85-1.898   c-0.192-0.043-0.381-0.064-0.565-0.064c-0.492,0-0.947,0.147-1.33,0.397c-0.224,0.146-0.479,0.228-0.736,0.228   c-0.146,0-0.292-0.026-0.434-0.083c0,0-2.12-0.861-2.834-1.129c-0.385-0.145-0.486-0.519-0.666-0.598   C28.32,21.854,28.242,21.839,28.163,21.839L28.163,21.839z"/>
</g>
<g>
	<path style="fill:#DFF0FE;" d="M19.5,13.1c-1.036,0-2.009-0.562-2.009-0.899c0-0.21,0.159-0.427,0.437-0.597   c0.612-0.374,0.964-0.957,0.964-1.599V9.729c0-1.035-0.135-2.088-1.108-2.77c-1.084-0.758-1.532-2.089-1.145-3.391   c0.276-0.93,1.067-1.697,2.013-1.954C18.934,1.539,19.22,1.5,19.501,1.5c1.653,0,2.999,1.346,2.999,3   c0,0.977-0.478,1.895-1.278,2.457c-0.835,0.587-1.259,1.506-1.259,2.732v0.315c0,0.642,0.352,1.225,0.964,1.599   c0.276,0.17,0.436,0.387,0.436,0.597C21.362,12.556,20.528,13.1,19.5,13.1z"/>
	<path style="fill:#4788C7;" d="M19.5,2C20.879,2,22,3.122,22,4.5c0,0.814-0.398,1.579-1.066,2.047   c-0.977,0.686-1.472,1.742-1.472,3.141v0.316c0,0.807,0.449,1.564,1.202,2.025c0.09,0.055,0.143,0.106,0.172,0.138   C20.675,12.329,20.154,12.6,19.5,12.6c-0.643,0-1.247-0.262-1.465-0.449c0.031-0.033,0.081-0.076,0.155-0.122   c0.753-0.461,1.202-1.218,1.202-2.025V9.73c0-0.732,0-2.255-1.323-3.18c-0.903-0.632-1.276-1.745-0.951-2.837   C17.347,2.944,18,2.31,18.782,2.098C19.022,2.033,19.263,2,19.5,2 M19.5,1c-0.319,0-0.647,0.043-0.98,0.133   c-1.113,0.302-2.031,1.189-2.361,2.294c-0.479,1.609,0.167,3.124,1.336,3.942c0.786,0.55,0.896,1.402,0.896,2.361v0.275   c0,0.496-0.301,0.913-0.725,1.172c-0.415,0.254-0.675,0.617-0.675,1.023c0,0.773,1.349,1.4,2.508,1.4c1.16,0,2.362-0.627,2.362-1.4   c0-0.406-0.261-0.769-0.675-1.023c-0.423-0.259-0.725-0.676-0.725-1.172V9.689c0-0.95,0.269-1.777,1.046-2.323   C22.411,6.733,23,5.685,23,4.5C23,2.567,21.433,1,19.5,1L19.5,1z"/>
</g>
<g>
	<path style="fill:#DFF0FE;" d="M19.5,30.5c-5.514,0-10-4.486-10-10s4.486-10,10-10s10,4.486,10,10S25.014,30.5,19.5,30.5z"/>
	<path style="fill:#4788C7;" d="M19.5,11c5.238,0,9.5,4.262,9.5,9.5S24.738,30,19.5,30S10,25.738,10,20.5S14.262,11,19.5,11    M19.5,10C13.701,10,9,14.701,9,20.5S13.701,31,19.5,31S30,26.299,30,20.5S25.299,10,19.5,10L19.5,10z"/>
</g>
<g>
	<circle style="fill:#98CCFD;" cx="17.5" cy="17.5" r="2.5"/>
</g>
<g>
	<path style="fill:#98CCFD;" d="M16.5,26c-0.9,0-1.5-0.6-1.5-1.5s0.599-1.5,1.5-1.5c0.9,0,1.5,0.6,1.5,1.5S17.4,26,16.5,26z"/>
</g>
<g>
	<path style="fill:#98CCFD;" d="M23,26c-1.067,0-2-0.932-2-2s0.933-2,2-2c1.066,0,2,0.932,2,2S24.066,26,23,26z"/>
</g>
</svg>
